REM DIRINDEX 1\6,1\2\7,1\2\8,1\2\9,1\3\10,1\3\11,1\4\12,1\4\13,1\4\14,1\5\15,1\5\16,1\5\17
REM DIRNAME folder01,folder02,folder03,folder04,folder05,folder06,folder07,folder08,folder09,folder10,folder11,folder12,folder13,folder14,folder15,folder16,folder17
TITLE ""
FILE "3Q_t_0616-0631.mp3" MP3
  TRACK 01 AUDIO
    TITLE "10:cjc041_2841"
    INDEX 01 00:00:00
  TRACK 02 AUDIO
    TITLE "0:"
    INDEX 01 00:01:01
  TRACK 03 AUDIO
    TITLE "11:cjc041_2842"
    INDEX 01 00:01:50
  TRACK 04 AUDIO
    TITLE "0:"
    INDEX 01 00:02:73
  TRACK 05 AUDIO
    TITLE "10:cjc041_2843"
    INDEX 01 00:03:51
  TRACK 06 AUDIO
    TITLE "0:"
    INDEX 01 00:04:58
  TRACK 07 AUDIO
    TITLE "11:cjc041_2844"
    INDEX 01 00:05:36
  TRACK 08 AUDIO
    TITLE "0:"
    INDEX 01 00:07:56
  TRACK 09 AUDIO
    TITLE "10:cjc041_2845"
    INDEX 01 00:08:32
  TRACK 10 AUDIO
    TITLE "0:"
    INDEX 01 00:09:36
  TRACK 11 AUDIO
    TITLE "11:cjc041_2846"
    INDEX 01 00:10:16
  TRACK 12 AUDIO
    TITLE "0:"
    INDEX 01 00:12:67
  TRACK 13 AUDIO
    TITLE "10:cjc041_2847"
    INDEX 01 00:13:43
  TRACK 14 AUDIO
    TITLE "0:"
    INDEX 01 00:14:49
  TRACK 15 AUDIO
    TITLE "11:cjc041_2848"
    INDEX 01 00:15:25
  TRACK 16 AUDIO
    TITLE "0:"
    INDEX 01 00:16:59
  TRACK 17 AUDIO
    TITLE "10:cjc041_2849"
    INDEX 01 00:17:35
  TRACK 18 AUDIO
    TITLE "0:"
    INDEX 01 00:18:50
  TRACK 19 AUDIO
    TITLE "11:cjc041_2850"
    INDEX 01 00:19:24
  TRACK 20 AUDIO
    TITLE "0:"
    INDEX 01 00:20:47
  TRACK 21 AUDIO
    TITLE "10:cjc041_2851"
    INDEX 01 00:21:25
  TRACK 22 AUDIO
    TITLE "0:"
    INDEX 01 00:22:42
  TRACK 23 AUDIO
    TITLE "11:cjc041_2852"
    INDEX 01 00:23:14
  TRACK 24 AUDIO
    TITLE "0:"
    INDEX 01 00:24:55
  TRACK 25 AUDIO
    TITLE "10:cjc041_2853"
    INDEX 01 00:25:33
  TRACK 26 AUDIO
    TITLE "0:"
    INDEX 01 00:26:44
  TRACK 27 AUDIO
    TITLE "11:cjc041_2854"
    INDEX 01 00:27:20
  TRACK 28 AUDIO
    TITLE "0:"
    INDEX 01 00:28:37
  TRACK 29 AUDIO
    TITLE "10:cjc041_2855"
    INDEX 01 00:29:19
  TRACK 30 AUDIO
    TITLE "0:"
    INDEX 01 00:30:32
  TRACK 31 AUDIO
    TITLE "11:cjc041_2856"
    INDEX 01 00:31:06
  TRACK 32 AUDIO
    TITLE "0:"
    INDEX 01 00:33:38
  TRACK 33 AUDIO
    TITLE "10:cjc041_2857"
    INDEX 01 00:34:18
  TRACK 34 AUDIO
    TITLE "0:"
    INDEX 01 00:35:41
  TRACK 35 AUDIO
    TITLE "11:cjc041_2858"
    INDEX 01 00:36:11
  TRACK 36 AUDIO
    TITLE "0:"
    INDEX 01 00:39:51
  TRACK 37 AUDIO
    TITLE "10:cjc041_2859"
    INDEX 01 00:40:24
  TRACK 38 AUDIO
    TITLE "0:"
    INDEX 01 00:41:36
  TRACK 39 AUDIO
    TITLE "11:cjc041_2860"
    INDEX 01 00:42:14
  TRACK 40 AUDIO
    TITLE "0:"
    INDEX 01 00:43:68
  TRACK 41 AUDIO
    TITLE "10:cjc041_2861"
    INDEX 01 00:44:48
  TRACK 42 AUDIO
    TITLE "0:"
    INDEX 01 00:46:02
  TRACK 43 AUDIO
    TITLE "11:cjc041_2862"
    INDEX 01 00:46:53
  TRACK 44 AUDIO
    TITLE "0:"
    INDEX 01 00:50:15
  TRACK 45 AUDIO
    TITLE "10:cjc041_2863"
    INDEX 01 00:50:62
  TRACK 46 AUDIO
    TITLE "0:"
    INDEX 01 00:52:14
  TRACK 47 AUDIO
    TITLE "11:cjc041_2864"
    INDEX 01 00:52:67
  TRACK 48 AUDIO
    TITLE "0:"
    INDEX 01 00:54:32
  TRACK 49 AUDIO
    TITLE "10:cjc041_2865"
    INDEX 01 00:55:10
  TRACK 50 AUDIO
    TITLE "0:"
    INDEX 01 00:56:35
  TRACK 51 AUDIO
    TITLE "11:cjc041_2866"
    INDEX 01 00:57:07
  TRACK 52 AUDIO
    TITLE "0:"
    INDEX 01 01:00:41
  TRACK 53 AUDIO
    TITLE "10:cjc041_2867"
    INDEX 01 01:01:13
  TRACK 54 AUDIO
    TITLE "0:"
    INDEX 01 01:02:30
  TRACK 55 AUDIO
    TITLE "11:cjc041_2868"
    INDEX 01 01:03:06
  TRACK 56 AUDIO
    TITLE "0:"
    INDEX 01 01:04:58
  TRACK 57 AUDIO
    TITLE "10:cjc041_2869"
    INDEX 01 01:05:28
  TRACK 58 AUDIO
    TITLE "0:"
    INDEX 01 01:06:61
  TRACK 59 AUDIO
    TITLE "11:cjc041_2870"
    INDEX 01 01:07:37
  TRACK 60 AUDIO
    TITLE "0:"
    INDEX 01 01:09:28
  TRACK 61 AUDIO
    TITLE "10:cjc041_2871"
    INDEX 01 01:10:06
  TRACK 62 AUDIO
    TITLE "0:"
    INDEX 01 01:11:33
  TRACK 63 AUDIO
    TITLE "11:cjc041_2872"
    INDEX 01 01:12:13
  TRACK 64 AUDIO
    TITLE "0:"
    INDEX 01 01:13:65
